<?xml version="1.0" encoding="UTF-8"?>
<svg id="Capa_1" xmlns="http://www.w3.org/2000/svg" version="1.1" viewBox="0 0 1031.81 288.44">
  <!-- Generator: Adobe Illustrator 29.0.0, SVG Export Plug-In . SVG Version: 2.1.0 Build 186)  -->
  <defs>
    <style>
      .st0 {
        fill: #ececdd;
      }
    </style>
  </defs>
  <path class="st0" d="M204.81,223.87c-36.25,19.85-78.86,32.28-124.11,32.28C24.61,256.15,0,233.4,0,209.05c0-28.31,29.9-60.07,95.79-60.07,28.05,0,51.34,9.53,73.03,23.29-12.44-11.11-17.99-27.26-17.99-45.51,0-51.87,44.19-118.02,107.17-118.02,44.19,0,62.71,27.25,62.71,60.6,0,48.96-38.9,105.85-97.91,143.95,33.87,26.99,70.39,51.87,122.25,51.87,21.7,0,40.22-4.76,51.07-18.79-11.11,18.26-35.99,42.07-70.92,42.07-47.1,0-83.62-31.75-120.4-64.57h0ZM199.52,219.11c-36.78-32.55-74.09-64.83-123.05-64.83-42.6,0-59.8,21.96-59.8,45.51,0,25.67,25.67,52.39,79.92,52.39,38.63,0,74.62-14.82,102.94-33.08h0ZM246.62,180.47c-10.32,4.23-21.43,6.35-33.34,6.35-13.23,0-24.08-2.38-33.08-6.62,12.17,8.47,23.82,17.99,35.72,27.52,12.44-9.26,22.76-18.79,30.7-27.26h0ZM281.82,55.31c0-24.61-7.14-43.13-24.61-43.13-35.99,0-67.74,78.33-67.74,128.87,0,24.34,7.14,42.07,24.61,42.07,36.25,0,67.74-77.53,67.74-127.81h0Z"/>
  <path class="st0" d="M326.01,159.31c0-26.2,26.46-65.63,26.46-84.94,0-3.97-1.32-6.09-3.97-6.09-5.56,0-12.7,7.15-26.73,26.2l-2.12-1.59c20.91-28.31,33.34-37.58,46.57-37.58,12.17,0,16.94,9,16.94,20.64,0,22.23-25.14,56.89-25.14,83.35-.26,9.53,2.65,14.29,7.67,14.29,18.79,0,43.93-58.75,64.3-116.17h32.28l-33.34,90.5c-3.44,9-5.03,15.61-5.03,19.85-.26,3.97,1.32,6.09,3.97,6.09,5.29,0,12.44-7.14,26.46-26.2l2.12,1.59c-20.9,28.31-33.34,37.58-46.57,37.58-11.91,0-16.94-9-16.94-20.64,0-6.09,1.85-13.76,4.23-20.11l1.59-4.23c-10.85,19.58-29.64,44.98-51.6,44.98-15.88,0-21.43-14.02-21.17-27.52h.02Z"/>
  <path class="st0" d="M451.96,146.07c0-40.49,37.84-90.76,81.5-90.76,25.4,0,35.99,14.02,35.99,26.99,0,39.43-83.09,39.96-83.09,73.83,0,10.85,7.67,17.73,20.11,17.73,16.41,0,34.67-14.55,47.63-37.84l2.38,1.06c-11.91,23.82-36.78,49.75-65.1,49.75s-39.69-18.26-39.43-40.75h.01ZM545.63,71.98c0-8.73-3.97-14.55-12.97-14.55-23.29,0-50.01,46.84-50.01,85.21,0,2.91.26,5.56.53,8.2,12.7-24.61,62.45-50.01,62.45-78.86Z"/>
  <path class="st0" d="M678.55,146.07c0-40.49,37.84-90.76,81.5-90.76,25.4,0,35.99,14.02,35.99,26.99,0,39.43-83.09,39.96-83.09,73.83,0,10.85,7.67,17.73,20.11,17.73,16.41,0,34.67-14.55,47.63-37.84l2.38,1.06c-11.91,23.82-36.78,49.75-65.1,49.75s-39.69-18.26-39.43-40.75h.01ZM772.23,71.98c0-8.73-3.97-14.55-12.97-14.55-23.29,0-50.01,46.84-50.01,85.21,0,2.91.26,5.56.53,8.2,12.7-24.61,62.45-50.01,62.45-78.86h0Z"/>
  <path class="st0" d="M784.93,154.81c0-39.43,34.14-99.76,80.44-99.5,7.94,0,15.08,2.38,21.7,4.5l7.67-21.17c3.44-8.73,5.03-15.35,5.03-19.85.26-3.97-1.32-5.82-3.97-5.82-5.29,0-12.44,7.14-26.46,25.93l-2.12-1.59C888.13,9,900.57-.26,913.8,0c11.91,0,17.2,8.2,17.2,19.85,0,6.09-1.32,12.7-3.97,19.58l-40.22,108.49c-3.44,9.26-5.03,16.14-5.03,20.38,0,3.7,1.32,5.56,3.97,5.56,5.56,0,12.17-6.62,26.73-26.2l2.12,1.85c-20.9,28.31-33.34,37.58-46.57,37.31-11.91,0-17.2-8.73-16.94-20.11,0-5.82,1.32-12.7,3.7-19.32l1.59-4.76c-12.44,24.08-28.05,44.46-48.42,44.19-16.41,0-23.02-13.5-23.02-32.02h-.01ZM884.69,66.16c-5.29-2.91-11.11-8.73-17.46-8.73-24.61,0-49.48,72.24-49.48,97.91,0,13.23,3.7,17.73,9,17.99,15.88,0,36.78-49.75,57.95-107.17h-.01Z"/>
  <path class="st0" d="M911.41,143.16c0-38.11,32.81-87.85,77-87.85,30.7,0,43.4,19.05,43.4,43.13,0,38.37-33.34,88.38-77.8,88.38-30.17,0-42.6-19.32-42.6-43.66ZM1000.32,82.3c0-14.82-3.97-24.87-13.23-24.87-20.38,0-44.19,65.89-44.19,102.41,0,14.55,3.71,24.87,12.97,24.87,20.11,0,44.46-65.36,44.46-102.41h-.01Z"/>
  <path class="st0" d="M593.7,46.43c0-6.27-2.27-16.18-16.27-16.18-7.81,0-20.58,4.81-36.05,27.18l-2.15-1.61c26.2-39.55,55.95-38.14,55.95-38.14,19.63,0,26.87,9.98,26.87,25.89,0,30.64-23.45,77.5-23.45,106.78,0,13.5,4.5,22.76,15.08,22.76,26.2,0,44.19-50.28,44.19-74.36,0-7.94-2.38-12.97-7.41-12.97-4.23,0-8.2,2.38-14.29,9.26,4.5-11.64,18.26-36.52,34.93-36.52,8.73,0,14.02,5.82,14.02,18.26,0,30.96-53.98,113.26-95.79,113.26-17.11,0-24.17-16.89-24.17-32.46,0-20.88,28.53-98.68,28.53-111.15h0Z"/>
</svg>